<svg id="Layer_1" data-name="Layer 1" xmlns="http://www.w3.org/2000/svg" viewBox="0 0 22 22"><path d="M18.18,4.29A4.56,4.56,0,0,0,15,3,4.49,4.49,0,0,0,12.07,4l6.36,6.37A4.54,4.54,0,0,0,18.18,4.29Z" style="fill:none"/><path d="M7,3A4.56,4.56,0,0,0,2.43,7.51a4.5,4.5,0,0,0,1.08,2.9L9.88,4A4.52,4.52,0,0,0,7,3Z" style="fill:none"/><path d="M15.39,13.51c-.14,0-.28,0-.43,0A6,6,0,0,1,11,12h0l-.21.17A6,6,0,0,1,7,13.55c-.14,0-.28,0-.42,0L11,17.93Z" style="fill:#fff"/><path d="M11,5.37a4.54,4.54,0,0,0-.55,2.14A4.47,4.47,0,0,0,11,9.64,4.55,4.55,0,0,0,11,5.37Z" style="fill:#fff"/><path d="M10,10.91l-.05-.07v0a6,6,0,0,1-.55-1h0A5.44,5.44,0,0,1,9,8.67H9a6.31,6.31,0,0,1-.11-1.15c0-.14,0-.27,0-.4L4.65,11.39A4.53,4.53,0,0,0,10,10.91Z" style="fill:#fff"/><path d="M12,10.91a4.54,4.54,0,0,0,5.33.48L13,7.08a6.07,6.07,0,0,1-1,3.83Z" style="fill:#fff"/><polygon points="12.07 4.04 12.06 4.04 18.43 10.41 12.07 4.04" style="fill:#fff"/><path d="M19.88,2.87a7.28,7.28,0,0,0-8.88-1A7.28,7.28,0,0,0,2.12,2.87a7.19,7.19,0,0,0-.47,9.68,1.57,1.57,0,0,0,.2.25l8.07,8a1.55,1.55,0,0,0,2.16,0l8.07-8a1.57,1.57,0,0,0,.2-.25A7.19,7.19,0,0,0,19.88,2.87Zm-11,4.4c0,.13,0,.27,0,.41A6.64,6.64,0,0,0,9,8.86H9A5.71,5.71,0,0,0,9.34,10h0a6,6,0,0,0,.56,1.06v0l.05.07a4.66,4.66,0,0,1-5.46.49ZM3.35,10.66a4.58,4.58,0,0,1-1.11-3A4.64,4.64,0,0,1,9.88,4.12Zm3.56,3.22a6.18,6.18,0,0,0,3.87-1.4A1.92,1.92,0,0,0,11,12.3h0a6.14,6.14,0,0,0,4.09,1.58c.15,0,.29,0,.44,0L11,18.37,6.47,13.84C6.62,13.85,6.76,13.88,6.91,13.88Zm3.52-6.2A4.61,4.61,0,0,1,11,5.49a4.65,4.65,0,0,1,0,4.38A4.61,4.61,0,0,1,10.43,7.68Zm2.64-.44,4.41,4.42A4.65,4.65,0,0,1,12,11.17h0A6.23,6.23,0,0,0,13.07,7.24Zm-1-3.12h0a4.64,4.64,0,0,1,6.53,6.54Z" style="fill:#f0f"/></svg>